<svg xmlns="http://www.w3.org/2000/svg" width="600" height="197" viewBox="0 0 600 197">
  <defs>
    <style>
      .cls-1 {
        fill: #4890fd;
      }

      .cls-1, .cls-2, .cls-3, .cls-4, .cls-5 {
        fill-rule: evenodd;
      }

      .cls-2, .cls-3, .cls-4, .cls-5 {
        fill: none;
      }

      .cls-2, .cls-4, .cls-5 {
        stroke: #000;
      }

      .cls-2 {
        stroke-width: 4px;
      }

      .cls-3 {
        stroke: #4890fd;
        stroke-width: 6px;
      }

      .cls-4 {
        stroke-width: 3px;
      }

      .cls-5 {
        stroke-width: 2px;
      }
    </style>
  </defs>
  <path id="מצב" class="cls-1" d="M417.309,163.215c3.08-.429,10.56-0.429,15.949-0.429h36.3l2.64-22.308h-7.37c0.44-2.288.55-14.157,0.55-16.445v-10.01c0-23.023-2.53-30.173-18.26-30.173H438.1c-9.569,0-13.529,0-15.949-.715l-2.86,21.879c1.87,0.858,6.38,1.287,12.1,1.287h10.229c7.92,0,9.13,2.717,9.68,12.727,0.22,5,.22,15.444.22,21.45h-14.3c-4.729,0-13.2,0-17.049.715Zm60.06,0c3.41-.429,12.1-0.429,18.259-0.429h30.91l3.63-18.447c-2.64-2.431-8.14-11.011-14.63-21.307,11.55-6.721,14.08-16.874,14.08-28.886a48.328,48.328,0,0,0-1.32-11.011l-18.48,1.716a52.669,52.669,0,0,1,3.3,16.016c0,4.862-.66,8.437-3.85,10.439-5.72-10.439-10.89-20.449-14.96-28.314l-21.669,1.716c4.29,6.721,13.64,22.165,18.26,29.315,10.339,16.445,14.959,23.023,17.819,26.455h-11.55a124.265,124.265,0,0,0-15.619.715Zm63.69-.429h14.409c1.65-12.87,4.07-29.458,5.83-37.466,1.54-8.151,4.51-20.163,13.09-20.163,9.79,0,10.56,12.3,10.56,24.739q0,5.363-.33,10.725h-5.61c-4.29,0-8.36,0-11.11.715l-2.75,21.879a88.43,88.43,0,0,1,10.34-.429h21.67c0.11-2.145,2.2-19.734,2.31-21.736V129.038c0-24.739-4.29-46.332-21.12-46.332-11.99,0-17.71,11.154-20.02,18.447-1.87-10.3-7.369-17.446-17.819-18.447l-2.86,23.309c6.27,1.144,9.68,5.148,8.8,14.014C545.9,127.179,543.149,148.057,541.059,162.786Z"/>
  <path id="האומה" class="cls-1" d="M1.876,162.786H16.4V125.034H1.876v37.752Zm37.289,0h14.52v-46.9c0-23.023-2.09-32.032-20.24-32.032H20.465c-10.01,0-15.95,0-18.37-.715l-2.75,21.879c1.76,0.858,7.37,1.287,13.2,1.287h18.37c7.15,0,8.25,3.289,8.25,17.446v39.039Zm26.511,0h14.41c1.65-12.87,4.07-29.458,5.83-37.466,1.54-8.151,4.51-20.163,13.09-20.163,9.79,0,10.56,12.3,10.56,24.739q0,5.363-.33,10.725h-5.61c-4.29,0-8.36,0-11.11.715l-2.75,21.879a88.424,88.424,0,0,1,10.34-.429h21.67c0.11-2.145,2.2-19.734,2.31-21.736V129.038c0-24.739-4.29-46.332-21.12-46.332-11.99,0-17.71,11.154-20.02,18.447-1.87-10.3-7.37-17.446-17.82-18.447l-2.86,23.309c6.27,1.144,9.68,5.148,8.8,14.014C70.516,127.179,67.766,148.057,65.676,162.786Zm80.959,0h14.52V118.027c0-23.595-3.74-30.03-18.7-33.176a63.76,63.76,0,0,1-10.45-2.717l-2.75,21.593a84.343,84.343,0,0,0,9.13,2.86c6.93,2,8.249,4.433,8.249,14.443v41.756Zm28.381,0h18.7c-1.76-6.721-4.07-15.158-4.07-27.17-0.11-5.005.44-10.439,2.53-14.729,12.87,20.878,19.47,35.035,22.44,41.9h19.14a374.632,374.632,0,0,0-18.15-35.464c9.68-7.007,12.32-19.591,12.32-28.314a64.767,64.767,0,0,0-1.65-16.016l-18.92,1.716c2.2,5.863,4.29,13.871,4.4,20.163,0,4.719-.88,8.294-2.86,10.725-10.12-18.018-16.72-28.028-20.13-32.461l-20.239,1.43-0.33,1a211.412,211.412,0,0,1,16.39,22.308c-8.8,9.152-11.44,22.594-11.44,35.321A100.548,100.548,0,0,0,175.016,162.786Zm66.44,0h14.519V125.034H241.456v37.752Zm37.289,0h14.52v-46.9c0-23.023-2.09-32.032-20.24-32.032h-12.98c-10.009,0-15.949,0-18.369-.715l-2.75,21.879c1.76,0.858,7.37,1.287,13.2,1.287H270.5c7.15,0,8.25,3.289,8.25,17.446v39.039Z"/>
  <path id="Rectangle_1_copy_5" data-name="Rectangle 1 copy 5" class="cls-2" d="M270,43.834H444.14v0.449a20,20,0,0,1-20,20H290a20,20,0,0,1-20-20V43.834Z"/>
  <path id="Line_1_copy_9" data-name="Line 1 copy 9" class="cls-2" d="M398.778,173.994l-0.533-.057L410.53,64.284l0.533,0.057Z"/>
  <path id="Line_1_copy_10" data-name="Line 1 copy 10" class="cls-2" d="M315.041,173.937l-0.533.057L302.222,64.341l0.533-.057Z"/>
  <path id="Triangle_1_copy_6" data-name="Triangle 1 copy 6" class="cls-3" d="M355.875,94.762L380.7,137.75H331.054Z"/>
  <path id="Triangle_1_copy_6-2" data-name="Triangle 1 copy 6" class="cls-3" d="M355.862,151.265l-24.8-42.975,49.642,0.025Z"/>
  <path class="cls-4" d="M309,174h96v9H309v-9Z"/>
  <path id="Rectangle_4_copy" data-name="Rectangle 4 copy" class="cls-4" d="M298.375,183h115v9h-115v-9Z"/>
  <path id="Rectangle_2_copy_5" data-name="Rectangle 2 copy 5" class="cls-5" d="M356.15,14.889a6,6,0,0,1,5.994,5.995V33.87a2,2,0,0,1-2,2h-7.989a2,2,0,0,1-2-2V20.884A6,6,0,0,1,356.15,14.889Z"/>
  <path id="Line_1_copy_9-2" data-name="Line 1 copy 9" class="cls-4" d="M355.683,36.892h0.371v6.317h-0.371V36.892Z"/>
  <path class="cls-5" d="M342.621,4.553l2.471,2.573a3.617,3.617,0,0,1,.186,4.434L334.373,26.853a2.306,2.306,0,0,1-3.657.431l-2.471-2.573a3.617,3.617,0,0,1-.186-4.434l10.9-15.292A2.306,2.306,0,0,1,342.621,4.553Z"/>
  <path id="Line_2_copy_7" data-name="Line 2 copy 7" class="cls-4" d="M324.274,32.833H324.7V44.35h-0.427V32.833Z"/>
  <path id="Line_2_copy_7-2" data-name="Line 2 copy 7" class="cls-4" d="M328.9,25.709l0.243,0.163-4.41,6.557-0.242-.163Z"/>
  <path id="Rectangle_3_copy_6" data-name="Rectangle 3 copy 6" class="cls-5" d="M368.661,4.25a5.249,5.249,0,0,0-1.473,7.418l9.65,13.863a1.126,1.126,0,0,0,1.536.288l5.994-3.94a1.057,1.057,0,0,0,.3-1.493L374.148,5.279A4.024,4.024,0,0,0,368.661,4.25Z"/>
  <path id="Line_2_copy_7-3" data-name="Line 2 copy 7" class="cls-4" d="M386.446,32.262h0.426V43.779h-0.426V32.262Z"/>
  <path id="Line_2_copy_7-4" data-name="Line 2 copy 7" class="cls-4" d="M381.728,24.829l0.253-.17,4.6,6.837-0.253.17Z"/>
  <path id="Line_1_copy_2" data-name="Line 1 copy 2" class="cls-5" d="M426.487,63.726l-0.493-.271-18.04,19.11,0.493,0.272Z"/>
  <path id="Line_1_copy_3" data-name="Line 1 copy 3" class="cls-5" d="M285.149,63.726l0.493-.271,18.04,19.11-0.493.272Z"/>
</svg>
