<svg xmlns="http://www.w3.org/2000/svg" shape-rendering="geometricPrecision" fill="grey" text-rendering="geometricPrecision" image-rendering="optimizeQuality" fill-rule="evenodd" clip-rule="evenodd" viewBox="0 0 512 490.328"><path d="M310.2 217.687h-7.48v11.777c0 4.603-3.764 8.378-8.38 8.378h-4.924c-4.603 0-8.379-3.775-8.379-8.378v-11.777h-50.719v11.777c0 4.603-3.775 8.378-8.378 8.378h-4.926c-4.603 0-8.378-3.775-8.378-8.378v-11.777h-6.377c-4.37-.068-6.466-2.413-6.79-6.531v-96.118c-2.431.245-3.642.811-4.233 2.078v27.473h-5.313c-3.305 0-6.015-2.706-6.015-6.013v-16.23c0-3.253 2.615-5.924 5.848-6.014.503-4.722 2.535-6.086 9.882-6.441 1.013-8.235 6.607-14.331 16.827-18.262 21.895-4.017 63.448-4.438 86.65 0 10.23 3.94 15.815 10.027 16.826 18.267 7.358.375 9.391 1.756 9.893 6.436 3.226.096 5.837 2.764 5.837 6.014v16.23c0 3.307-2.71 6.013-6.016 6.013h-5.312v-27.554c-.595-1.238-1.809-1.782-4.232-2.009v95.191c-.001 5.516-1.777 7.476-5.911 7.47zm-200.675 100.39c6.788 0 12.291 5.502 12.291 12.29 0 6.788-5.503 12.291-12.291 12.291H71.371L33.266 465.747H477.89l-41.374-123.089h-28.585c-6.788 0-12.291-5.503-12.291-12.291s5.503-12.29 12.291-12.29h46.17L512 490.328H0l53.325-172.251h56.2zm151.015 83.231c20.888-13.489 39.699-29.699 56.157-47.739 36.576-40.092 61.224-88.961 71.123-136.951 9.737-47.208 5.196-93.365-16.38-128.955a125.636 125.636 0 00-22.848-27.775c-26.077-23.795-55.949-35.148-85.98-35.4-31.601-.267-63.688 11.681-92.062 34.289-12.088 9.633-21.982 20.737-29.751 32.966-19.921 31.356-25.924 70.29-19.344 111.069 6.715 41.627 26.514 85.134 58.012 124.668 21.641 27.161 48.813 52.402 81.073 73.828zm74.303-31.224c-19.593 21.474-42.426 40.641-68.131 56.223l-6.533 3.961-6.382-4.057c-37.421-23.773-68.795-52.417-93.533-83.465-34.114-42.817-55.619-90.324-63.003-136.094-7.523-46.622-.435-91.493 22.799-128.064 9.185-14.456 20.9-27.599 35.223-39.013C188.035 13.476 225.512-.309 262.804.005c36.001.304 71.564 13.688 102.303 41.736 10.784 9.837 19.848 21.016 27.263 33.247 24.938 41.137 30.383 93.527 19.452 146.526-10.77 52.22-37.451 105.241-76.979 148.57zm-91.1-166.013h24.094c.649 0 1.18.529 1.18 1.179v4.032c0 .651-.531 1.18-1.18 1.18h-24.094c-.649 0-1.18-.529-1.18-1.18v-4.032c0-.65.531-1.179 1.18-1.179zm68.304-10.701l-.352-8.333c-.192-1.469-.966-2.109-2.347-1.878-7.053 3.73-13.701 8.012-20.074 12.678-1.356.896-.816 2.639.974 2.316l18.865-1.377c1.831-.303 2.715-1.531 2.934-3.406zm-113 0l.352-8.333c.192-1.469.966-2.109 2.347-1.878 7.053 3.73 13.7 8.012 20.073 12.678 1.358.896.817 2.639-.973 2.316l-18.864-1.377c-1.832-.303-2.718-1.531-2.935-3.406zm40.376-97.361h32.734c1.101 0 1.999.906 1.999 1.999v5.21a2.013 2.013 0 01-1.999 1.999h-32.734a2.008 2.008 0 01-1.999-1.999v-5.21c0-1.099.898-1.999 1.999-1.999zm-34.422 15.801h101.125a2.459 2.459 0 012.445 2.457v53.342c0 1.341-1.092 2.082-2.445 2.445-34.683 10.539-66.443 10.103-101.125 0-1.367-.366-2.445-1.104-2.445-2.445v-53.354c-.012-1.352 1.101-2.445 2.445-2.445z"/></svg>