<svg xmlns="http://www.w3.org/2000/svg" xmlns:xlink="http://www.w3.org/1999/xlink" version="1.1" x="0px" y="0px" viewBox="0 0 32 40" style="enable-background:new 0 0 32 32;" xml:space="preserve"><g><path d="M13.33,16.19c-2.99,0-5.43-2.44-5.44-5.43c0-0.61-0.5-1.1-1.11-1.1c0,0,0,0,0,0c-0.61,0-1.1,0.5-1.1,1.11   c0,4.21,3.43,7.64,7.65,7.64c0.61,0,1.11-0.49,1.11-1.11C14.44,16.68,13.94,16.19,13.33,16.19z"/><path d="M26.23,5.97h-2.67H3.11C2.49,5.97,2,6.46,2,7.07v3.68c0,3.74,1.83,7.05,4.63,9.11H4.3c-0.61,0-1.11,0.49-1.11,1.11   c0,2.79,2.27,5.06,5.06,5.06H18.4c2.79,0,5.06-2.27,5.06-5.06c0-0.61-0.49-1.11-1.11-1.11h-2.32c2.08-1.54,3.62-3.77,4.27-6.35   h1.92c2.08,0,3.77-1.69,3.77-3.77S28.31,5.97,26.23,5.97z M21.03,22.07c-0.43,1.03-1.45,1.75-2.63,1.75H8.26   c-1.18,0-2.2-0.72-2.63-1.75h7.56c0.05,0,0.09,0.01,0.13,0.01h0c0.05,0,0.09-0.01,0.13-0.01H21.03z M13.47,19.86H13.2   c-4.97-0.07-8.99-4.13-8.99-9.11V8.18h18.24v2.57C22.45,15.73,18.43,19.79,13.47,19.86z M26.23,11.3h-1.56v-0.55V8.18h1.56   c0.86,0,1.56,0.7,1.56,1.56C27.79,10.6,27.09,11.3,26.23,11.3z"/></g><text x="0" y="47" fill="#000000" font-size="5px" font-weight="bold" font-family="'Helvetica Neue', Helvetica, Arial-Unicode, Arial, Sans-serif">Created by andika</text><text x="0" y="52" fill="#000000" font-size="5px" font-weight="bold" font-family="'Helvetica Neue', Helvetica, Arial-Unicode, Arial, Sans-serif">from the Noun Project</text></svg>