<svg xmlns="http://www.w3.org/2000/svg" width="1280" height="310" viewBox="0 0 1280 310">
  <defs>
    <style>
      .cls-1 {
        fill: #787878;
      }

      .cls-1, .cls-2 {
        fill-rule: evenodd;
      }

      .cls-2 {
        fill: #4890fd;
      }
    </style>
  </defs>
  <path id="זהה_את_הח_כ" data-name="זהה את הח”כ" class="cls-1" d="M92.813,153.6c5.6-.8,19.4-0.6,29.2-0.6h57.4c3.8-19.8,6.8-38.2,6.8-57.6,0-40.4-8-52.8-42.4-52.8h-15.4c-12,0-22.6,0-26.8-1l-5.2,30.6c3.4,1.2,13.2,1.8,24,1.8h16.4c16.8,0,23,3.8,23,24a175.107,175.107,0,0,1-1.8,24h-30.8c-10.2,0-24.8,0-29.2.8Zm110.8-67.4,22.4-1.6c9.2-15.8,17.4-38.8,21-53.4l-30.2,1.8C214.012,51,208.413,71.2,203.613,86.2Zm46.8,0,22.4-1.6c9.2-15.8,17.4-38.8,21-53.4l-30.2,1.8C260.812,51,255.212,71.2,250.412,86.2Zm68.2,66.8h26.2V74h25.6c13.4,0,15.8,4.8,15.8,21.2V153h26.4V87.4c0-31.4-3.4-44.8-36.4-44.8h-30.4c-18.2,0-29-.2-33.4-1l-5,30.6c1.6,0.4,9.6,1,13.4,1.4-1.4,5.4-2.2,12.8-2.2,26.6V153Zm119.8,0h26.4V100.2h-26.4V153Zm67.8,0h26.4V87.4c0-32.2-3.8-44.8-36.8-44.8h-23.6c-18.2,0-29,0-33.4-1l-5,30.6c3.2,1.2,13.4,1.8,24,1.8h33.4c13,0,15,4.6,15,24.4V153Zm84.4,1.2c3-.8,13-1.2,19.2-1.2h22.2l4.2-31c0-10.8-1.2-37.8-2-48h24.2c12.6,0,15.4,4.6,15.4,20.2V153h26.4V83.8c0-31.6-3.6-41.2-36.8-41.2h-26.6c-15.8,0-31.6.4-36.4-.8l-5.2,30.2c2.4,1.2,9.6,2,12.4,2h0.4c1.4,10,2.6,37,2.4,47.8h-2c-6.6,0-9.6.4-12.4,1Zm134.8-1.2h34c-3.2-9.4-7.4-21.2-7.4-38-0.2-7,.8-14.6,4.6-20.6,23.4,29.2,35.4,49,40.8,58.6h34.8a492.287,492.287,0,0,0-33-49.6c17.6-9.8,22.4-27.4,22.4-39.6,0-8.8-.8-15.4-3-22.4l-34.4,2.4c4,8.2,7.8,19.4,8,28.2,0,6.6-1.6,11.6-5.2,15-18.4-25.2-30.4-39.2-36.6-45.4l-36.8,2-0.6,1.4c9.4,8.6,21.6,21,29.8,31.2-16,12.8-20.8,31.6-20.8,49.4A109.427,109.427,0,0,0,725.412,153Zm160.6,0h26.4V100.2h-26.4V153Zm67.8,0h26.4V87.4c0-32.2-3.8-44.8-36.8-44.8h-23.6c-18.2,0-29,0-33.4-1l-5,30.6c3.2,1.2,13.4,1.8,24,1.8h33.4c13,0,15,4.6,15,24.4V153Zm52.4,0h26.4V100.2h-26.4V153Zm67.8,0h26.4V87.4c0-32.2-3.8-44.8-36.8-44.8h-23.6c-18.2,0-29,0-33.4-1l-5,30.6c3.2,1.2,13.4,1.8,24,1.8h33.4c13,0,15,4.6,15,24.4V153Zm60.8,0h27c-1.8-25.4-3.4-51.6-3-62,0.2-8.8,2.2-11.8,8.8-11.2,2.4,0,9.4,1,13.8,1.4l4.2-30.8c-17-1.4-56.8-6.2-66.2-10.2l-5,30.4c3.6,1.8,16.4,4.4,26,5.6-5.2,5.6-8,13.2-8.2,25.6C1132.01,110.8,1133.21,131.4,1134.81,153Z"/>
  <path id="אהוד_ברק_" data-name="אהוד ברק?" class="cls-2" d="M53.963,244.835l14.057-.8-0.1-1.757c-0.381-6.7,17.633-9.6,16.783-24.533-0.444-7.8-6.743-13.94-18.823-13.253-9.335.532-14.9,3.383-17.566,4.966l-0.091,13.888A37.367,37.367,0,0,1,61.9,219.7c4.063-.231,6.31.523,6.4,2.17,0.275,4.832-15.719,8.387-15.088,19.479A9.809,9.809,0,0,0,53.963,244.835Zm5.393,3.77C52.437,249,48.338,254.41,48.7,260.78a8.18,8.18,0,0,0,8.828,7.981c7.248-.412,11.128-5.812,10.784-11.852C68.05,252.3,64.518,248.311,59.356,248.605Zm51.863,16.881c24.475-3.6,41.49-24.067,40.184-47.02-0.694-12.19-6.674-16.587-19.633-15.85l-12.849.731c-5.162.294-13.082,0.524-15.67-.43l-5.335,16.61c2.6,1.174,7.568,1.332,13.718.982l15.375-.875c7.029-.4,9.228,1.458,9.321,6.962,0.311,9.347-6.891,16.368-18.153,17.89ZM88.941,288.348l14.074-2.453,8.826-52.066-14.073,2.453Zm92.247-26.624,14.183-2.459,5.744-34.593c3.651-21.031-.6-25.968-16.96-25.037l-3.294.188c-9.775.556-15.175,0.533-17.647-.318l-5.329,16.719c1.6,1.011,5.7,1.329,11.3,1.01l9.445-.537c8.017-.456,9.8,1.866,8.234,11.1Zm22.4,2.472c6.11-2.992,16.638-5.8,33.221-6.738l17.023-.969,5.316-16.939-7.028.4c0.643-2.241,2.145-10.7,2.824-14.264l1.1-5.792c3.6-19.927-4.566-24.09-16.867-23.39l-7.907.45c-7.578.431-10.91-.04-12.595-0.605l-5.444,16.616c2.039,0.986,5.92,1.426,13.059,1.02l6.369-.363c7.359-.418,10.132,1.848,8.62,12.07-1.2,8-1.973,11.791-2.561,15.02-13.508.769-24.08,2.8-29.493,6.416Zm99.361-54.573,12.739-.725c-2.059,2.541-3.428,5.594-4.741,13.491-1.581,9.014-3.435,22.892-4.667,32.217l14.073-2.453c1.559-11.327,3.184-23.429,5.346-35.782,0.98-6,2.948-8.211,7.671-8.479l0.988-.057,5.639-17.068-28.444,1.619c-11.311.644-14.954,0.52-17.537-.324l-5.335,16.61C290.369,209.347,293.939,210.135,302.945,209.623ZM352.95,251.95l14.183-2.459,4.946-29.259c3.208-19.133-.308-24.772-15.079-28.78-3.358-.91-5.927-1.535-7.637-2.54l-4.946,15.707c1.045,0.932,3.633,1.886,7.332,3,7.722,2.095,7.853,4.4,6.3,13.855Zm26.467-1.506,14.183-2.459,4.752-28.807-14.184,2.46Zm35.693-2.031,14.183-2.459,5.75-34.483c2.79-16.8.825-26.159-16.527-25.172l-14.277.813c-6.589.375-11.983,0.461-14.571-.493L384,203.247c2.485,1.071,7.239,1.351,14.6.933l12.52-.713c7.687-.437,11.138,2.121,9.806,9.689Zm28.883-1.643,17.7-2.66a71.7,71.7,0,0,1-1.343-10.06c-0.575-10.1,1.168-16.263,4.8-22.2A236.277,236.277,0,0,1,482.211,244.6l17.7-2.66c-2.553-6.135-8.823-17.567-14.045-26.084,13.177-6.589,16.82-20.018,16.12-32.318a31.267,31.267,0,0,0-.407-3.282l-17.459,2.976a52.415,52.415,0,0,1,1.4,9.066c0.2,3.514-.156,10.806-4.71,14.04-7.217-12.591-13.428-21.051-16.019-23.989l-18.563,2.929-0.176.782a120.438,120.438,0,0,1,13.385,16.426c-12.868,10.1-16.543,26.833-15.749,40.781C443.727,244.03,443.827,245.788,443.993,246.77Z"/>
</svg>
