<svg id="מבית_מצב_האומה" data-name="מבית מצב האומה" xmlns="http://www.w3.org/2000/svg" width="1280" height="432" viewBox="0 0 1280 432">
  <defs>
    <style>
      .cls-1 {
        fill: #787878;
      }

      .cls-1, .cls-2, .cls-3, .cls-4, .cls-5, .cls-6 {
        fill-rule: evenodd;
      }

      .cls-2 {
        fill: #4890fd;
      }

      .cls-3, .cls-4, .cls-5, .cls-6 {
        fill: none;
      }

      .cls-3, .cls-5, .cls-6 {
        stroke: #000;
      }

      .cls-3 {
        stroke-width: 4px;
      }

      .cls-4 {
        stroke: #4890fd;
        stroke-width: 6px;
      }

      .cls-5 {
        stroke-width: 3px;
      }

      .cls-6 {
        stroke-width: 2px;
      }
    </style>
  </defs>
  <path id="זהה_את_הח_כ" data-name="זהה את הח”כ" class="cls-1" d="M92.813,153.6c5.6-.8,19.4-0.6,29.2-0.6h57.4c3.8-19.8,6.8-38.2,6.8-57.6,0-40.4-8-52.8-42.4-52.8h-15.4c-12,0-22.6,0-26.8-1l-5.2,30.6c3.4,1.2,13.2,1.8,24,1.8h16.4c16.8,0,23,3.8,23,24a175.107,175.107,0,0,1-1.8,24h-30.8c-10.2,0-24.8,0-29.2.8Zm110.8-67.4,22.4-1.6c9.2-15.8,17.4-38.8,21-53.4l-30.2,1.8C214.012,51,208.413,71.2,203.613,86.2Zm46.8,0,22.4-1.6c9.2-15.8,17.4-38.8,21-53.4l-30.2,1.8C260.812,51,255.212,71.2,250.412,86.2Zm68.2,66.8h26.2V74h25.6c13.4,0,15.8,4.8,15.8,21.2V153h26.4V87.4c0-31.4-3.4-44.8-36.4-44.8h-30.4c-18.2,0-29-.2-33.4-1l-5,30.6c1.6,0.4,9.6,1,13.4,1.4-1.4,5.4-2.2,12.8-2.2,26.6V153Zm119.8,0h26.4V100.2h-26.4V153Zm67.8,0h26.4V87.4c0-32.2-3.8-44.8-36.8-44.8h-23.6c-18.2,0-29,0-33.4-1l-5,30.6c3.2,1.2,13.4,1.8,24,1.8h33.4c13,0,15,4.6,15,24.4V153Zm84.4,1.2c3-.8,13-1.2,19.2-1.2h22.2l4.2-31c0-10.8-1.2-37.8-2-48h24.2c12.6,0,15.4,4.6,15.4,20.2V153h26.4V83.8c0-31.6-3.6-41.2-36.8-41.2h-26.6c-15.8,0-31.6.4-36.4-.8l-5.2,30.2c2.4,1.2,9.6,2,12.4,2h0.4c1.4,10,2.6,37,2.4,47.8h-2c-6.6,0-9.6.4-12.4,1Zm134.8-1.2h34c-3.2-9.4-7.4-21.2-7.4-38-0.2-7,.8-14.6,4.6-20.6,23.4,29.2,35.4,49,40.8,58.6h34.8a492.287,492.287,0,0,0-33-49.6c17.6-9.8,22.4-27.4,22.4-39.6,0-8.8-.8-15.4-3-22.4l-34.4,2.4c4,8.2,7.8,19.4,8,28.2,0,6.6-1.6,11.6-5.2,15-18.4-25.2-30.4-39.2-36.6-45.4l-36.8,2-0.6,1.4c9.4,8.6,21.6,21,29.8,31.2-16,12.8-20.8,31.6-20.8,49.4A109.427,109.427,0,0,0,725.412,153Zm160.6,0h26.4V100.2h-26.4V153Zm67.8,0h26.4V87.4c0-32.2-3.8-44.8-36.8-44.8h-23.6c-18.2,0-29,0-33.4-1l-5,30.6c3.2,1.2,13.4,1.8,24,1.8h33.4c13,0,15,4.6,15,24.4V153Zm52.4,0h26.4V100.2h-26.4V153Zm67.8,0h26.4V87.4c0-32.2-3.8-44.8-36.8-44.8h-23.6c-18.2,0-29,0-33.4-1l-5,30.6c3.2,1.2,13.4,1.8,24,1.8h33.4c13,0,15,4.6,15,24.4V153Zm60.8,0h27c-1.8-25.4-3.4-51.6-3-62,0.2-8.8,2.2-11.8,8.8-11.2,2.4,0,9.4,1,13.8,1.4l4.2-30.8c-17-1.4-56.8-6.2-66.2-10.2l-5,30.4c3.6,1.8,16.4,4.4,26,5.6-5.2,5.6-8,13.2-8.2,25.6C1132.01,110.8,1133.21,131.4,1134.81,153Z"/>
  <path id="מצב" class="cls-2" d="M691.233,377.364c2.158-.3,7.4-0.3,11.177-0.3h25.44l1.85-15.634h-5.165c0.308-1.6.385-9.922,0.385-11.525V342.89c0-16.135-1.773-21.146-12.8-21.146H705.8c-6.706,0-9.482,0-11.178-.5l-2,15.333c1.311,0.6,4.471.9,8.48,0.9h7.169c5.551,0,6.4,1.9,6.784,8.919,0.154,3.508.154,10.824,0.154,15.033H705.186c-3.315,0-9.251,0-11.949.5Zm42.091,0c2.39-.3,8.48-0.3,12.8-0.3h21.662l2.544-12.928c-1.851-1.7-5.705-7.717-10.253-14.933,8.094-4.71,9.867-11.825,9.867-20.244a33.832,33.832,0,0,0-.925-7.716l-12.951,1.2a36.925,36.925,0,0,1,2.313,11.225c0,3.407-.463,5.912-2.7,7.315-4.009-7.315-7.632-14.331-10.484-19.843l-15.187,1.2c3.007,4.71,9.559,15.534,12.8,20.545,7.246,11.525,10.484,16.135,12.488,18.54H747.2a87.084,87.084,0,0,0-10.947.5Zm44.635-.3h10.1c1.156-9.02,2.852-20.645,4.086-26.257,1.079-5.713,3.16-14.131,9.173-14.131,6.861,0,7.4,8.619,7.4,17.338q0,3.757-.232,7.516h-3.931a35.39,35.39,0,0,0-7.786.5l-1.927,15.333a62.1,62.1,0,0,1,7.246-.3h15.187c0.077-1.5,1.541-13.83,1.618-15.233v-8.419c0-17.337-3.006-32.47-14.8-32.47-8.4,0-12.411,7.817-14.03,12.928-1.31-7.216-5.165-12.227-12.488-12.928l-2,16.335c4.394,0.8,6.783,3.608,6.167,9.822C781.351,352.11,779.424,366.741,777.959,377.064Z"/>
  <path id="האומה_copy" data-name="האומה copy" class="cls-2" d="M400.088,377.064h10.175V350.606H400.088v26.458Zm26.133,0H436.4V344.192c0-16.135-1.465-22.448-14.185-22.448h-9.1c-7.015,0-11.178,0-12.874-.5l-1.927,15.333c1.233,0.6,5.165.9,9.25,0.9h12.874c5.011,0,5.782,2.305,5.782,12.226v27.36Zm18.579,0h10.1c1.156-9.02,2.852-20.645,4.085-26.257,1.08-5.713,3.161-14.131,9.174-14.131,6.861,0,7.4,8.619,7.4,17.338q0,3.757-.232,7.516H471.4a35.39,35.39,0,0,0-7.786.5l-1.927,15.333a62.1,62.1,0,0,1,7.246-.3h15.186c0.078-1.5,1.542-13.83,1.619-15.233v-8.419c0-17.337-3.006-32.47-14.8-32.47-8.4,0-12.411,7.817-14.03,12.928-1.31-7.216-5.165-12.227-12.488-12.928l-2,16.335c4.394,0.8,6.784,3.608,6.167,9.822C448.192,352.11,446.265,366.741,444.8,377.064Zm56.739,0h10.175V345.7c0-16.536-2.621-21.046-13.105-23.251a44.677,44.677,0,0,1-7.323-1.9l-1.928,15.133a59.218,59.218,0,0,0,6.4,2c4.856,1.4,5.782,3.107,5.782,10.122v29.264Zm19.889,0h13.105a68.922,68.922,0,0,1-2.852-19.042c-0.077-3.507.308-7.315,1.773-10.322a232.256,232.256,0,0,1,15.726,29.364h13.414a262.88,262.88,0,0,0-12.72-24.854c6.784-4.911,8.634-13.73,8.634-19.843a45.393,45.393,0,0,0-1.157-11.225l-13.259,1.2a46.909,46.909,0,0,1,3.084,14.131c0,3.307-.617,5.812-2,7.516-7.092-12.627-11.717-19.643-14.107-22.749l-14.184,1-0.231.7a148.315,148.315,0,0,1,11.486,15.634c-6.167,6.414-8.017,15.835-8.017,24.754A70.471,70.471,0,0,0,521.428,377.064Zm46.563,0h10.175V350.606H567.991v26.458Zm26.133,0H604.3V344.192c0-16.135-1.465-22.448-14.185-22.448h-9.1c-7.015,0-11.178,0-12.874-.5l-1.927,15.333c1.233,0.6,5.165.9,9.25,0.9h12.874c5.011,0,5.782,2.305,5.782,12.226v27.36Z"/>
  <path id="Rectangle_1_copy_6" data-name="Rectangle 1 copy 6" class="cls-3" d="M588,293.7H710.036a14.332,14.332,0,0,1-14.331,14.332H602.326C594.411,308.031,588,293.7,588,293.7Z"/>
  <path id="Line_1_copy_11" data-name="Line 1 copy 11" class="cls-3" d="M678.246,384.918l-0.374-.039,8.61-76.848,0.374,0.04Z"/>
  <path id="Line_1_copy_11-2" data-name="Line 1 copy 11" class="cls-3" d="M619.561,384.879l-0.374.039-8.61-76.847,0.374-.04Z"/>
  <path id="Triangle_1_copy_7" data-name="Triangle 1 copy 7" class="cls-4" d="M648.172,329.375l17.39,30.156H630.781Z"/>
  <path id="Triangle_1_copy_7-2" data-name="Triangle 1 copy 7" class="cls-4" d="M648.158,368.989l-17.391-30.133,34.813,0.017Z"/>
  <path id="Rectangle_4_copy_2" data-name="Rectangle 4 copy 2" class="cls-5" d="M615.327,384.923h67.279v6.307H615.327v-6.307Z"/>
  <path id="Rectangle_4_copy_2-2" data-name="Rectangle 4 copy 2" class="cls-5" d="M607.881,391.23h80.6v6.307h-80.6V391.23Z"/>
  <path id="Rectangle_2_copy_6" data-name="Rectangle 2 copy 6" class="cls-6" d="M648.371,273.414a4.2,4.2,0,0,1,4.2,4.2v8.5a2,2,0,0,1-2,2h-4.4a2,2,0,0,1-2-2v-8.5A4.2,4.2,0,0,1,648.371,273.414Z"/>
  <path id="Line_1_copy_11-3" data-name="Line 1 copy 11" class="cls-5" d="M648.043,288.834H648.3v4.427h-0.261v-4.427Z"/>
  <path id="Rectangle_3_copy" data-name="Rectangle 3 copy" class="cls-6" d="M638.89,266.17l1.731,1.8a2.534,2.534,0,0,1,.131,3.107L633.109,281.8a1.616,1.616,0,0,1-2.563.3l-1.731-1.8a2.534,2.534,0,0,1-.131-3.107l7.643-10.717A1.616,1.616,0,0,1,638.89,266.17Z"/>
  <path id="Line_2_copy_8" data-name="Line 2 copy 8" class="cls-5" d="M626.032,285.99h0.3v8.071h-0.3V285.99Z"/>
  <path id="Line_2_copy_8-2" data-name="Line 2 copy 8" class="cls-5" d="M629.272,281l0.17,0.115-3.09,4.595-0.17-.114Z"/>
  <path id="Rectangle_3_copy_7" data-name="Rectangle 3 copy 7" class="cls-6" d="M657.139,265.958a3.678,3.678,0,0,0-1.032,5.2l6.762,9.716a0.789,0.789,0,0,0,1.077.2l4.2-2.761a0.74,0.74,0,0,0,.207-1.046l-7.37-10.587A2.819,2.819,0,0,0,657.139,265.958Z"/>
  <path id="Line_2_copy_8-3" data-name="Line 2 copy 8" class="cls-5" d="M669.6,285.59h0.3v8.071h-0.3V285.59Z"/>
  <path id="Line_2_copy_8-4" data-name="Line 2 copy 8" class="cls-5" d="M666.3,280.38l0.177-.119,3.222,4.792-0.177.119Z"/>
  <path id="Line_1_copy_4" data-name="Line 1 copy 4" class="cls-6" d="M697.665,307.64l-0.346-.19-12.643,13.392,0.346,0.19Z"/>
  <path id="Line_1_copy_4-2" data-name="Line 1 copy 4" class="cls-6" d="M598.612,307.64l0.346-.19L611.6,320.842l-0.345.19Z"/>
  <path id="מבית" class="cls-1" d="M796.068,308.16a19.867,19.867,0,0,1,4.036-.328h4.667l0.883-8.473c0-2.952-.252-10.332-0.42-13.12h5.088c2.649,0,3.237,1.257,3.237,5.521v16.072h5.551V288.918c0-8.638-.757-11.262-7.737-11.262h-5.592c-3.322,0-6.644.11-7.653-.218l-1.093,8.254a7.051,7.051,0,0,0,2.607.547h0.084c0.294,2.733.546,10.113,0.5,13.065h-0.42a8.879,8.879,0,0,0-2.607.274Zm32.63-8.91c2.312-4.155,3.952-9.02,3.952-13.175,0-4.647-1.556-7.216-6.9-8.255a18.637,18.637,0,0,1-2.691-.765l-1.009,8.255a27.239,27.239,0,0,0,2.607.984c1.64,0.492,2.355.82,2.355,2.405,0,1.695-.967,4.428-2.649,7.817ZM834.753,308c1.177-.164,4.037-0.164,6.1-0.164h13.876l1.009-8.528h-2.817c0.168-.874.21-5.412,0.21-6.286v-3.827c0-8.8-.967-11.535-6.98-11.535H842.7c-3.658,0-5.172,0-6.1-.273l-1.093,8.364a14.274,14.274,0,0,0,4.625.492h3.911c3.027,0,3.49,1.039,3.7,4.865,0.084,1.914.084,5.9,0.084,8.2h-5.466a49.266,49.266,0,0,0-6.518.274Zm23.548-.164h5.508c0.631-4.92,1.556-11.261,2.228-14.322,0.589-3.116,1.724-7.708,5-7.708,3.742,0,4.037,4.7,4.037,9.457q0,2.05-.127,4.1h-2.144a19.324,19.324,0,0,0-4.247.273L867.509,308a33.886,33.886,0,0,1,3.953-.164h8.283c0.042-.82.841-7.544,0.883-8.309v-4.592c0-9.457-1.64-17.712-8.073-17.712-4.583,0-6.77,4.264-7.653,7.052-0.715-3.936-2.817-6.669-6.812-7.052L857,286.13c2.4,0.437,3.7,1.968,3.364,5.357C860.151,294.22,859.1,302.2,858.3,307.832Z"/>
  <path id="אהוד_ברק_" data-name="אהוד ברק?" class="cls-2" d="M53.963,244.835l14.057-.8-0.1-1.757c-0.381-6.7,17.633-9.6,16.783-24.533-0.444-7.8-6.743-13.94-18.823-13.253-9.335.532-14.9,3.383-17.566,4.966l-0.091,13.888A37.367,37.367,0,0,1,61.9,219.7c4.063-.231,6.31.523,6.4,2.17,0.275,4.832-15.719,8.387-15.088,19.479A9.809,9.809,0,0,0,53.963,244.835Zm5.393,3.77C52.437,249,48.338,254.41,48.7,260.78a8.18,8.18,0,0,0,8.828,7.981c7.248-.412,11.128-5.812,10.784-11.852C68.05,252.3,64.518,248.311,59.356,248.605Zm51.863,16.881c24.475-3.6,41.49-24.067,40.184-47.02-0.694-12.19-6.674-16.587-19.633-15.85l-12.849.731c-5.162.294-13.082,0.524-15.67-.43l-5.335,16.61c2.6,1.174,7.568,1.332,13.718.982l15.375-.875c7.029-.4,9.228,1.458,9.321,6.962,0.311,9.347-6.891,16.368-18.153,17.89ZM88.941,288.348l14.074-2.453,8.826-52.066-14.073,2.453Zm92.247-26.624,14.183-2.459,5.744-34.593c3.651-21.031-.6-25.968-16.96-25.037l-3.294.188c-9.775.556-15.175,0.533-17.647-.318l-5.329,16.719c1.6,1.011,5.7,1.329,11.3,1.01l9.445-.537c8.017-.456,9.8,1.866,8.234,11.1Zm22.4,2.472c6.11-2.992,16.638-5.8,33.221-6.738l17.023-.969,5.316-16.939-7.028.4c0.643-2.241,2.145-10.7,2.824-14.264l1.1-5.792c3.6-19.927-4.566-24.09-16.867-23.39l-7.907.45c-7.578.431-10.91-.04-12.595-0.605l-5.444,16.616c2.039,0.986,5.92,1.426,13.059,1.02l6.369-.363c7.359-.418,10.132,1.848,8.62,12.07-1.2,8-1.973,11.791-2.561,15.02-13.508.769-24.08,2.8-29.493,6.416Zm99.361-54.573,12.739-.725c-2.059,2.541-3.428,5.594-4.741,13.491-1.581,9.014-3.435,22.892-4.667,32.217l14.073-2.453c1.559-11.327,3.184-23.429,5.346-35.782,0.98-6,2.948-8.211,7.671-8.479l0.988-.057,5.639-17.068-28.444,1.619c-11.311.644-14.954,0.52-17.537-.324l-5.335,16.61C290.369,209.347,293.939,210.135,302.945,209.623ZM352.95,251.95l14.183-2.459,4.946-29.259c3.208-19.133-.308-24.772-15.079-28.78-3.358-.91-5.927-1.535-7.637-2.54l-4.946,15.707c1.045,0.932,3.633,1.886,7.332,3,7.722,2.095,7.853,4.4,6.3,13.855Zm26.467-1.506,14.183-2.459,4.752-28.807-14.184,2.46Zm35.693-2.031,14.183-2.459,5.75-34.483c2.79-16.8.825-26.159-16.527-25.172l-14.277.813c-6.589.375-11.983,0.461-14.571-.493L384,203.247c2.485,1.071,7.239,1.351,14.6.933l12.52-.713c7.687-.437,11.138,2.121,9.806,9.689Zm28.883-1.643,17.7-2.66a71.7,71.7,0,0,1-1.343-10.06c-0.575-10.1,1.168-16.263,4.8-22.2A236.277,236.277,0,0,1,482.211,244.6l17.7-2.66c-2.553-6.135-8.823-17.567-14.045-26.084,13.177-6.589,16.82-20.018,16.12-32.318a31.267,31.267,0,0,0-.407-3.282l-17.459,2.976a52.415,52.415,0,0,1,1.4,9.066c0.2,3.514-.156,10.806-4.71,14.04-7.217-12.591-13.428-21.051-16.019-23.989l-18.563,2.929-0.176.782a120.438,120.438,0,0,1,13.385,16.426c-12.868,10.1-16.543,26.833-15.749,40.781C443.727,244.03,443.827,245.788,443.993,246.77Z"/>
</svg>
