<svg width="426" height="71" viewBox="0 0 426 71" fill="none" xmlns="http://www.w3.org/2000/svg">
<path d="M25.1719 70.9375C16.5469 70.9375 10.2031 68.9375 6.14062 64.9375C2.07812 60.9062 0.046875 54.7188 0.046875 46.375V11.8281H12.7031V46.0938C12.7031 50.75 13.7031 54.1562 15.7031 56.3125C17.7031 58.4688 20.8906 59.5469 25.2656 59.5469C28.4531 59.5469 31.1562 58.9375 33.375 57.7188C35.5938 56.4688 37.2812 54.3125 38.4375 51.25C39.5938 48.1562 40.1719 43.875 40.1719 38.4062C40.1719 33 39.5625 28.9688 38.3438 26.3125C37.125 23.625 35.1094 22.2812 32.2969 22.2812C29.5781 22.2812 26.7344 23.1719 23.7656 24.9531V13.4688C26.7031 11.7188 30.25 10.8438 34.4062 10.8438C41.0938 10.8438 45.8906 13.0312 48.7969 17.4062C51.7344 21.75 53.2031 28.7188 53.2031 38.3125C53.2031 49.625 50.9531 57.8906 46.4531 63.1094C41.9844 68.3281 34.8906 70.9375 25.1719 70.9375ZM77.5781 53.0312L74.6719 70H61.5469L65.4844 50.5938C66.6094 45.2188 67.6406 41.3906 68.5781 39.1094C69.5156 36.7969 70.6719 34.9688 72.0469 33.625C73.4531 32.25 75.3906 31.0312 77.8594 29.9688L64.3125 11.8281H79.6875L98.6719 38.125C100.641 36.3438 102.141 34.25 103.172 31.8438C104.203 29.4375 104.938 26.1875 105.375 22.0938L106.359 11.8281H119.297L118.172 22.9375C117.828 26.0938 117.203 28.8906 116.297 31.3281C115.672 32.9844 114.906 34.5469 114 36.0156C113.094 37.4531 111.906 38.9844 110.438 40.6094C109 42.2031 107.094 44.0625 104.719 46.1875L122.203 70H106.922L83.5312 37.5625C81.875 38.5312 80.6875 39.9375 79.9688 41.7812C79.625 42.7188 79.25 44.125 78.8438 46C78.4375 47.875 78.0156 50.2188 77.5781 53.0312ZM144.303 0.181816V8.36363C144.303 10.5909 143.848 12.8182 142.939 15.0455C142.053 17.25 140.916 19.3068 139.53 21.2159C138.166 23.1023 136.757 24.6818 135.303 25.9545L127.53 22C128.484 20.3636 129.337 18.4659 130.087 16.3068C130.837 14.1477 131.212 11.5 131.212 8.36363V0.181816H144.303ZM202.031 61.8438V70H152.859V58.6562H184.359L149.109 11.8281H164.297L182.062 35.9219C184.125 34.9219 185.609 33.4219 186.516 31.4219C187.453 29.4219 188.109 26.5 188.484 22.6562L189.516 11.8281H202.5L201.516 22.75C201.109 27.0625 200.422 30.4375 199.453 32.875C198.484 35.25 197.094 37.2656 195.281 38.9219C193.469 40.5781 190.984 42.0469 187.828 43.3281L202.031 61.8438Z" fill="#4890FD"/>
<path d="M213.375 40.6094C213.375 38.5469 213.578 36.4062 213.984 34.1875C214.422 31.9375 215.016 29.8438 215.766 27.9062C216.516 25.9375 217.391 24.3594 218.391 23.1719H209.531V11.8281H242.062C251.469 11.8281 258.281 13.8125 262.5 17.7812C266.75 21.75 268.875 28.1406 268.875 36.9531V40.7031C268.875 50.6719 266.469 58.2031 261.656 63.2969C256.844 68.3906 249.75 70.9375 240.375 70.9375C231.188 70.9375 224.391 68.5469 219.984 63.7656C215.578 58.9531 213.375 51.7188 213.375 42.0625V40.6094ZM229.406 23.1719C227.5 26.4844 226.547 32.0469 226.547 39.8594V41.9688C226.547 47.8438 227.719 52.2656 230.062 55.2344C232.406 58.1719 235.938 59.6406 240.656 59.6406C245.906 59.6406 249.703 58.125 252.047 55.0938C254.422 52.0625 255.609 47.1406 255.609 40.3281V36.8594C255.609 31.9844 254.469 28.4844 252.188 26.3594C249.938 24.2344 246.25 23.1719 241.125 23.1719H229.406ZM307.875 34.75V70H277.547V58.6562H295.219V37.1875C295.219 32.9688 294.938 29.9531 294.375 28.1406C293.812 26.3594 292.875 25.0938 291.562 24.3438C290.25 23.5625 288.328 23.1719 285.797 23.1719H280.219V11.8281H288.188C293.562 11.8281 297.578 12.5469 300.234 13.9844C302.891 15.4219 304.828 17.7812 306.047 21.0625C307.266 24.3438 307.875 28.9062 307.875 34.75ZM363.422 42.0625C363.422 60.6875 353.922 70 334.922 70H319.359V58.6562H334.219C339.812 58.6562 343.953 57.25 346.641 54.4375C349.328 51.625 350.672 47.3438 350.672 41.5938V40.3281C350.672 34.4844 349.328 30.1719 346.641 27.3906C343.953 24.5781 339.875 23.1719 334.406 23.1719H319.359V11.8281H335.578C354.141 11.8281 363.422 21.1094 363.422 39.6719V42.0625ZM426 36.2969V70H413.297V36.2031C413.297 31.4219 412.281 28.0625 410.25 26.125C408.219 24.1562 404.688 23.1719 399.656 23.1719H375.891V11.8281H400.453C406.609 11.8281 411.547 12.6562 415.266 14.3125C419.016 15.9688 421.734 18.5938 423.422 22.1875C425.141 25.75 426 30.4531 426 36.2969ZM389.484 34.6562V70H376.828V34.6562H389.484Z" fill="#999999"/>
</svg>
