<svg width="500" height="500" viewBox="0 0 500 500" fill="none" xmlns="http://www.w3.org/2000/svg">
<g clip-path="url(#clip0_2405_444)">
<rect width="53.5313" height="51.2113" transform="matrix(0.981134 -0.193329 0.250998 0.967988 58.6837 323.551)" fill="#4881DA"/>
<rect width="53.5313" height="2.72401" transform="matrix(0.981134 -0.193329 0.250998 0.967988 58 320.914)" fill="white"/>
<rect width="53.5313" height="86.9288" transform="matrix(0.981134 -0.193329 0.250998 0.967988 135.482 271.992)" fill="#4881DA"/>
<rect width="53.5313" height="2.96348" transform="matrix(0.981134 -0.193329 0.250998 0.967988 134.739 269.123)" fill="white"/>
<rect width="53.5313" height="116.5" transform="matrix(0.981134 -0.193329 0.250998 0.967988 213.877 226.586)" fill="#4881DA"/>
<rect width="53.5313" height="3.23612" transform="matrix(0.981134 -0.193329 0.250998 0.967988 213.877 226.586)" fill="white"/>
<rect width="53.5313" height="148.591" transform="matrix(0.981134 -0.193329 0.250998 0.967988 291.687 176.661)" fill="#4881DA"/>
<rect width="53.5313" height="6.02395" transform="matrix(0.981134 -0.193329 0.250998 0.967988 290.175 170.83)" fill="white"/>
<rect width="53.5313" height="63.9188" transform="matrix(0.981134 -0.193329 0.250998 0.967988 369.583 136.349)" fill="#D9D9D9"/>
<rect width="53.5313" height="177.627" transform="matrix(0.981134 -0.193329 0.250998 0.967988 369.583 136.349)" fill="#4881DA"/>
<path d="M-20.5 273.82L154.032 178.82L500 75.32V15L145 120L-20.5 273.82Z" fill="#4881DA"/>
<path d="M558.553 274.627L381.317 355.414L36.956 430.967L32 491.126L385.252 414.798L558.553 274.627Z" fill="#4881DA"/>
</g>
<defs>
<clipPath id="clip0_2405_444">
<rect width="500" height="500" fill="white"/>
</clipPath>
</defs>
</svg>
